<svg width="48" height="48" xmlns="http://www.w3.org/2000/svg" x="0px" y="0px" viewBox="0 0 501 525"  fill="#ffffff">
    <path fill="#ffffff" fill-rule="evenodd" d="M250.776 524.53c-77.098-.058-139.204-18.559-182.597-51.788C24.267 439.113.97 391.39.97 337.388c0-52.031 23.244-89.55 49.546-114.912 20.613-19.874 43.358-32.601 59.196-39.924-3.581-10.992-8.05-25.381-12.048-40.245-5.348-19.887-10.596-43.223-10.596-60.321 0-20.238 4.41-40.567 16.309-56.36C115.948 8.94 134.874 0 157.639 0c17.793 0 32.9 6.6 44.724 17.985 11.304 10.882 18.831 25.336 24.025 40.403 9.128 26.474 12.683 59.735 13.678 92.931h21.808c.998-33.196 4.55-66.457 13.68-92.93 5.195-15.068 12.717-29.52 24.023-40.404C311.404 6.604 326.508 0 344.301 0c22.768 0 41.691 8.94 54.263 25.626 11.897 15.793 16.311 36.122 16.311 56.36 0 17.098-5.251 40.434-10.599 60.321-3.998 14.864-8.467 29.253-12.048 40.245 15.838 7.323 38.585 20.05 59.196 39.927 26.302 25.359 49.546 62.878 49.546 114.909 0 54.002-23.294 101.725-67.209 135.354-43.393 33.229-105.499 51.73-182.597 51.788h-.388ZM157.637 19.248c-33.343 0-48.693 25.132-48.693 59.886 0 27.625 17.835 82.95 25.151 104.487 1.648 4.847-.941 10.152-5.658 12.03-26.724 10.646-105.591 49.623-105.591 138.888v.24-.061.354c0 94.106 80.274 165.042 228.3 165.042 148.025 0 228.299-70.936 228.299-165.042v-.354a72.595 72.595 0 0 1-.636 9.416c.188-3.17.283-6.369.283-9.595 0-89.265-78.867-128.242-105.592-138.888-4.717-1.875-7.303-7.183-5.657-12.03 7.318-21.535 25.153-76.862 25.153-104.487 0-34.757-15.35-59.886-48.695-59.886-47.999 0-59.965 68.686-60.818 142.405-.056 4.92-3.996 8.914-8.866 8.914h-47.294c-4.872 0-8.81-3.994-8.868-8.914-.853-73.72-12.817-142.405-60.818-142.405Z" clip-rule="evenodd"/>
    <path fill="#ffffff" d="M190.808 311.369c0 25.665-12.006 39.032-26.817 39.032s-26.817-13.367-26.817-39.032c0-25.666 12.006-39.032 26.817-39.032s26.817 13.366 26.817 39.032Zm174.312 0c0 25.665-12.006 39.032-26.817 39.032s-26.817-13.367-26.817-39.032c0-25.666 12.006-39.032 26.817-39.032s26.817 13.366 26.817 39.032Z"/>
</svg>